<?xml version="1.0" encoding="UTF-8" standalone="no"?><svg xmlns="http://www.w3.org/2000/svg" xmlns:xlink="http://www.w3.org/1999/xlink" contentScriptType="application/ecmascript" contentStyleType="text/css" height="199px" preserveAspectRatio="none" style="width:175px;height:199px;" version="1.1" viewBox="0 0 175 199" width="175px" zoomAndPan="magnify"><defs><filter height="300%" id="fd2ro7d2djua9" width="300%" x="-1" y="-1"><feGaussianBlur result="blurOut" stdDeviation="2.0"/><feColorMatrix in="blurOut" result="blurOut2" type="matrix" values="0 0 0 0 0 0 0 0 0 0 0 0 0 0 0 0 0 0 .4 0"/><feOffset dx="4.0" dy="4.0" in="blurOut2" result="blurOut3"/><feBlend in="SourceGraphic" in2="blurOut3" mode="normal"/></filter></defs><g><g id="space"><rect fill="#FEFECE" filter="url(#fd2ro7d2djua9)" height="50.6211" rx="12.5" ry="12.5" style="stroke:#A80036;stroke-width:1.5;" width="70" x="39.59" y="135"/><line style="stroke:#A80036;stroke-width:1.5;" x1="39.59" x2="109.59" y1="161.4883" y2="161.4883"/><text fill="#000000" font-family="sans-serif" font-size="14" lengthAdjust="spacing" textLength="39" x="55.09" y="153.5352">space</text><text fill="#000000" font-family="sans-serif" font-size="12" lengthAdjust="spacing" textLength="50" x="44.59" y="178.0898">potential</text></g><g id="expression"><rect fill="#FEFECE" filter="url(#fd2ro7d2djua9)" height="50.6211" rx="12.5" ry="12.5" style="stroke:#A80036;stroke-width:1.5;" width="96" x="26.59" y="7"/><line style="stroke:#A80036;stroke-width:1.5;" x1="26.59" x2="122.59" y1="33.4883" y2="33.4883"/><text fill="#000000" font-family="sans-serif" font-size="14" lengthAdjust="spacing" textLength="76" x="36.59" y="25.5352">expression</text><text fill="#000000" font-family="sans-serif" font-size="12" lengthAdjust="spacing" textLength="27" x="31.59" y="50.0898">form</text></g><!--MD5=[7f96dcab8a89d13b828feb0cfa608575]
reverse link expression to space--><path d="M33.89,61.79 C26.06,69.33 18.95,78.16 14.59,88 C6,107.41 21.92,125.68 39.5,138.89 " fill="none" id="expression-backto-space" style="stroke:#A80036;stroke-width:1.0;"/><polygon fill="#A80036" points="37.78,58.2,28.4521,61.3608,34.1043,61.5896,33.8755,67.2418,37.78,58.2" style="stroke:#A80036;stroke-width:1.0;"/><text fill="#000000" font-family="sans-serif" font-size="13" lengthAdjust="spacing" textLength="73" x="15.59" y="101.5684">Appearance</text><!--MD5=[834281e753886e279b0707a5d04ac865]
link expression to space--><path d="M85.2,58.27 C88.59,67.43 91.9,78.02 93.59,88 C95.96,101.97 92.76,117.19 88.34,129.97 " fill="none" id="expression-to-space" style="stroke:#A80036;stroke-width:1.0;"/><polygon fill="#A80036" points="86.53,134.93,93.3787,127.8522,88.2479,130.2344,85.8657,125.1036,86.53,134.93" style="stroke:#A80036;stroke-width:1.0;"/><text fill="#000000" font-family="sans-serif" font-size="13" lengthAdjust="spacing" textLength="73" x="94.59" y="101.5684">Dissolution</text><!--MD5=[acf0ecabf9d13834a6613a4d13f2718f]
@startuml BasicFlows
state space
space : potential
state expression
expression : form
space -up-> expression : Appearance
expression - -> space : Dissolution

		
@enduml

PlantUML version 1.2021.00(Sun Jan 10 11:25:05 CET 2021)
(GPL source distribution)
Java Runtime: Java(TM) SE Runtime Environment
JVM: Java HotSpot(TM) 64-Bit Server VM
Default Encoding: UTF-8
Language: en
Country: GB
--></g></svg>