<?xml version="1.0" encoding="UTF-8" standalone="no"?><svg xmlns="http://www.w3.org/2000/svg" xmlns:xlink="http://www.w3.org/1999/xlink" contentScriptType="application/ecmascript" contentStyleType="text/css" height="430px" preserveAspectRatio="none" style="width:766px;height:430px;" version="1.1" viewBox="0 0 766 430" width="766px" zoomAndPan="magnify"><defs><filter height="300%" id="fu0i63wgyqsg5" width="300%" x="-1" y="-1"><feGaussianBlur result="blurOut" stdDeviation="2.0"/><feColorMatrix in="blurOut" result="blurOut2" type="matrix" values="0 0 0 0 0 0 0 0 0 0 0 0 0 0 0 0 0 0 .4 0"/><feOffset dx="4.0" dy="4.0" in="blurOut2" result="blurOut3"/><feBlend in="SourceGraphic" in2="blurOut3" mode="normal"/></filter></defs><g><!--MD5=[b5dc3cab59400ec3c04742995af6d5e7]
cluster Warzywa.Obróbka--><polygon fill="#FFFFFF" filter="url(#fu0i63wgyqsg5)" points="16,6,150,6,157,28.4883,200,28.4883,200,423.5,16,423.5,16,6" style="stroke:#000000;stroke-width:1.5;"/><line style="stroke:#000000;stroke-width:1.5;" x1="16" x2="157" y1="28.4883" y2="28.4883"/><text fill="#000000" font-family="sans-serif" font-size="14" font-weight="bold" lengthAdjust="spacing" textLength="128" x="20" y="21.5352">Warzywa.Obróbka</text><!--MD5=[d152d4a918aec51bdf3270b1a35e7443]
cluster Włoszczyzna--><polygon fill="#FFFFFF" filter="url(#fu0i63wgyqsg5)" points="40,49,137,49,144,71.4883,176,71.4883,176,399.5,40,399.5,40,49" style="stroke:#000000;stroke-width:1.5;"/><line style="stroke:#000000;stroke-width:1.5;" x1="40" x2="144" y1="71.4883" y2="71.4883"/><text fill="#000000" font-family="sans-serif" font-size="14" font-weight="bold" lengthAdjust="spacing" textLength="91" x="44" y="64.5352">Włoszczyzna</text><!--MD5=[d6396eee96c7b79ff9656aa2ca27ec31]
cluster Zupa1--><rect fill="#FFFFFF" filter="url(#fu0i63wgyqsg5)" height="106" style="stroke:#000000;stroke-width:1.5;" width="92" x="224" y="300.5"/><path d="M278,300.5 L278,309.9883 L268,319.9883 L224,319.9883 " fill="none" style="stroke:#000000;stroke-width:1.5;"/><text fill="#000000" font-family="sans-serif" font-size="14" font-weight="bold" lengthAdjust="spacing" textLength="44" x="227" y="315.0352">Zupa1</text><!--MD5=[e9d52e8a0b622b66a5ef553924613138]
cluster Zupa2--><rect fill="#FFFFFF" filter="url(#fu0i63wgyqsg5)" height="106" style="stroke:#000000;stroke-width:1.5;" width="138" x="340" y="300.5"/><path d="M394,300.5 L394,309.9883 L384,319.9883 L340,319.9883 " fill="none" style="stroke:#000000;stroke-width:1.5;"/><text fill="#000000" font-family="sans-serif" font-size="14" font-weight="bold" lengthAdjust="spacing" textLength="44" x="343" y="315.0352">Zupa2</text><!--MD5=[837039d15108822d8ad3c3fc396446a0]
cluster Zupa3--><rect fill="#FFFFFF" filter="url(#fu0i63wgyqsg5)" height="106" style="stroke:#000000;stroke-width:1.5;" width="104" x="502" y="300.5"/><path d="M556,300.5 L556,309.9883 L546,319.9883 L502,319.9883 " fill="none" style="stroke:#000000;stroke-width:1.5;"/><text fill="#000000" font-family="sans-serif" font-size="14" font-weight="bold" lengthAdjust="spacing" textLength="44" x="505" y="315.0352">Zupa3</text><!--MD5=[40e12b394cfb9366d82310a7336006a1]
cluster Zupa4--><rect fill="#FFFFFF" filter="url(#fu0i63wgyqsg5)" height="106" style="stroke:#000000;stroke-width:1.5;" width="124" x="630" y="300.5"/><path d="M684,300.5 L684,309.9883 L674,319.9883 L630,319.9883 " fill="none" style="stroke:#000000;stroke-width:1.5;"/><text fill="#000000" font-family="sans-serif" font-size="14" font-weight="bold" lengthAdjust="spacing" textLength="44" x="633" y="315.0352">Zupa4</text><!--MD5=[ef2661002ca1f76c4fea66df20daaccc]
entity Marchewka--><rect fill="#FEFECE" filter="url(#fu0i63wgyqsg5)" height="22.4883" style="stroke:#000000;stroke-width:1.5;" width="97" x="62.5" y="103"/><text fill="#000000" font-family="sans-serif" font-size="14" lengthAdjust="spacing" textLength="77" x="72.5" y="119.5352">Marchewka</text><!--MD5=[72755b388bf7a7349762d1644fd1e37d]
entity Pietruszka--><rect fill="#FEFECE" filter="url(#fu0i63wgyqsg5)" height="22.4883" style="stroke:#000000;stroke-width:1.5;" width="91" x="68.5" y="215.5"/><text fill="#000000" font-family="sans-serif" font-size="14" lengthAdjust="spacing" textLength="71" x="78.5" y="232.0352">Pietruszka</text><!--MD5=[4d596680606f5272ad06ce82632a4e0f]
entity SelerKorzeń--><rect fill="#FEFECE" filter="url(#fu0i63wgyqsg5)" height="22.4883" style="stroke:#000000;stroke-width:1.5;" width="103" x="56.5" y="361.5"/><text fill="#000000" font-family="sans-serif" font-size="14" lengthAdjust="spacing" textLength="83" x="66.5" y="378.0352">SelerKorzeń</text><!--MD5=[e46e33a0a24c9da1ff0d81acd5c7c54a]
entity Rosół--><polygon fill="#FEFECE" filter="url(#fu0i63wgyqsg5)" points="240.5,354.5,240.5,390.9883,299.5,390.9883,299.5,364.5,289.5,354.5,240.5,354.5" style="stroke:#000000;stroke-width:1.5;"/><path d="M289.5,354.5 L289.5,364.5 L299.5,364.5 " fill="#FEFECE" style="stroke:#000000;stroke-width:1.5;"/><text fill="#000000" font-family="sans-serif" font-size="14" lengthAdjust="spacing" textLength="39" x="250.5" y="378.0352">Rosół</text><!--MD5=[9eb9344ef0b3fa8cf6a107c38f9a98b4]
entity Pomidorowa--><polygon fill="#FEFECE" filter="url(#fu0i63wgyqsg5)" points="356,354.5,356,390.9883,462,390.9883,462,364.5,452,354.5,356,354.5" style="stroke:#000000;stroke-width:1.5;"/><path d="M452,354.5 L452,364.5 L462,364.5 " fill="#FEFECE" style="stroke:#000000;stroke-width:1.5;"/><text fill="#000000" font-family="sans-serif" font-size="14" lengthAdjust="spacing" textLength="86" x="366" y="378.0352">Pomidorowa</text><!--MD5=[9448cc5ea6f5948b1b59a46e6b32dc90]
entity Barszcz--><polygon fill="#FEFECE" filter="url(#fu0i63wgyqsg5)" points="518,354.5,518,390.9883,590,390.9883,590,364.5,580,354.5,518,354.5" style="stroke:#000000;stroke-width:1.5;"/><path d="M580,354.5 L580,364.5 L590,364.5 " fill="#FEFECE" style="stroke:#000000;stroke-width:1.5;"/><text fill="#000000" font-family="sans-serif" font-size="14" lengthAdjust="spacing" textLength="52" x="528" y="378.0352">Barszcz</text><!--MD5=[a3ca6548eb193a2d948f902b1dc850c2]
entity Ogórkowa--><polygon fill="#FEFECE" filter="url(#fu0i63wgyqsg5)" points="646.5,354.5,646.5,390.9883,737.5,390.9883,737.5,364.5,727.5,354.5,646.5,354.5" style="stroke:#000000;stroke-width:1.5;"/><path d="M727.5,354.5 L727.5,364.5 L737.5,364.5 " fill="#FEFECE" style="stroke:#000000;stroke-width:1.5;"/><text fill="#000000" font-family="sans-serif" font-size="14" lengthAdjust="spacing" textLength="71" x="656.5" y="378.0352">Ogórkowa</text><!--MD5=[e209b37fc91f378abaa2ddf468318055]
entity actor--><ellipse cx="234" cy="83" fill="#FEFECE" filter="url(#fu0i63wgyqsg5)" rx="8" ry="8" style="stroke:#A80036;stroke-width:1.5;"/><path d="M234,91 L234,118 M221,99 L247,99 M234,118 L221,133 M234,118 L247,133 " fill="none" filter="url(#fu0i63wgyqsg5)" style="stroke:#A80036;stroke-width:1.5;"/><text fill="#000000" font-family="sans-serif" font-size="14" lengthAdjust="spacing" textLength="35" x="216.5" y="152.0352">actor</text><!--MD5=[e925a87776988a228664ba5e4199e00a]
link Marchewka to Pietruszka--><path d="M111.28,125.2 C111.85,146.25 113.15,194.3 113.72,215.33 " fill="none" id="Marchewka-Pietruszka" style="stroke:#A80036;stroke-width:1.0;stroke-dasharray:1.0,3.0;"/><!--MD5=[d33b0a9732645dc5d3435a756757040d]
link Pietruszka to SelerKorzeń--><path d="M109.66,237.81 C106.55,245.76 102.65,257.11 101,267.5 C95.59,301.64 102.15,342.73 105.83,361.39 " fill="none" id="Pietruszka-SelerKorzeń" style="stroke:#A80036;stroke-width:1.0;stroke-dasharray:1.0,3.0;"/><!--MD5=[8ccc9a1fd7a0646d1f5e519a1ac307fa]
link Marchewka to Rosół--><path d="M130.79,125.08 C168.84,145.72 251.24,196.89 283,267.5 C294.94,294.04 286.89,328 279.17,349.76 " fill="none" id="Marchewka-to-Rosół" style="stroke:#A80036;stroke-width:1.0;"/><polygon fill="#A80036" points="277.43,354.48,284.2907,347.4139,279.1559,349.7873,276.7824,344.6525,277.43,354.48" style="stroke:#A80036;stroke-width:1.0;"/><text fill="#000000" font-family="sans-serif" font-size="13" lengthAdjust="spacing" textLength="16" x="266" y="231.5684">3x</text><!--MD5=[d483b49193def99c19f5ec2e830413c9]
link Pietruszka to Rosół--><path d="M114.58,237.63 C115.9,250.54 120.17,272.59 134,284.5 C148.4,296.9 158.84,284.34 176,292.5 C205.54,306.53 233.43,332.11 251.04,350.37 " fill="none" id="Pietruszka-to-Rosół" style="stroke:#A80036;stroke-width:1.0;"/><polygon fill="#A80036" points="254.85,354.37,251.5196,345.1013,251.3939,350.7568,245.7384,350.6311,254.85,354.37" style="stroke:#A80036;stroke-width:1.0;"/><text fill="#000000" font-family="sans-serif" font-size="13" lengthAdjust="spacing" textLength="16" x="135" y="281.0684">3x</text><!--MD5=[3c3a3687497eaba6d36b186801fd2040]
link SelerKorzeń to Rosół--><path d="M159.7,372.5 C184.39,372.5 213.28,372.5 235.29,372.5 " fill="none" id="SelerKorzeń-to-Rosół" style="stroke:#A80036;stroke-width:1.0;"/><polygon fill="#A80036" points="240.45,372.5,231.45,368.5,235.45,372.5,231.45,376.5,240.45,372.5" style="stroke:#A80036;stroke-width:1.0;"/><text fill="#000000" font-family="sans-serif" font-size="13" lengthAdjust="spacing" textLength="16" x="192" y="366.0684">3x</text><!--MD5=[4f2aab21145547e3a79f1cea21f5b9fd]
link Marchewka to Pomidorowa--><path d="M131.5,125.11 C192.39,155.3 369,244.17 386,267.5 C403.54,291.57 408.12,326.53 409.09,349.14 " fill="none" id="Marchewka-to-Pomidorowa" style="stroke:#A80036;stroke-width:1.0;"/><polygon fill="#A80036" points="409.27,354.33,412.9593,345.1982,409.0987,349.3329,404.964,345.4723,409.27,354.33" style="stroke:#A80036;stroke-width:1.0;"/><text fill="#000000" font-family="sans-serif" font-size="13" lengthAdjust="spacing" textLength="16" x="343" y="231.5684">3x</text><!--MD5=[d17f3e04fcb086434466cfcf3357eb27]
link Pietruszka to Pomidorowa--><path d="M159.81,236.81 C202.17,246.65 265.94,264.65 316,292.5 C344.05,308.11 371.48,332.92 389.2,350.57 " fill="none" id="Pietruszka-to-Pomidorowa" style="stroke:#A80036;stroke-width:1.0;"/><polygon fill="#A80036" points="393.04,354.44,389.523,345.2405,389.5116,350.8973,383.8548,350.8859,393.04,354.44" style="stroke:#A80036;stroke-width:1.0;"/><text fill="#000000" font-family="sans-serif" font-size="13" lengthAdjust="spacing" textLength="16" x="296" y="281.0684">3x</text><!--MD5=[5430a57ee68eb51a1571b80d81a165ba]
link SelerKorzeń to Pomidorowa--><path d="M110.94,361.31 C116.68,342.05 131.39,303.16 160,287.08 C166.97,283.16 170,286.93 178,287.08 C239.37,288.29 258.88,270.03 316,292.5 C346.4,304.46 373.76,330.81 390.81,350.01 " fill="none" id="SelerKorzeń-to-Pomidorowa" style="stroke:#A80036;stroke-width:1.0;"/><polygon fill="#A80036" points="394.5,354.24,391.604,344.8265,391.2156,350.47,385.5721,350.0816,394.5,354.24" style="stroke:#A80036;stroke-width:1.0;"/><text fill="#000000" font-family="sans-serif" font-size="13" lengthAdjust="spacing" textLength="16" x="161" y="281.0684">3x</text><!--MD5=[87652b682d785b281824263d597c19dd]
link Marchewka to Barszcz--><path d="M132.13,125.08 C149.82,133.38 175.83,145.24 199,154.5 C339.45,210.63 414.26,159.35 520,267.5 C541.73,289.72 549.57,326.03 552.4,349.33 " fill="none" id="Marchewka-to-Barszcz" style="stroke:#A80036;stroke-width:1.0;"/><polygon fill="#A80036" points="552.96,354.38,555.9328,344.9905,552.4031,349.4111,547.9825,345.8815,552.96,354.38" style="stroke:#A80036;stroke-width:1.0;"/><text fill="#000000" font-family="sans-serif" font-size="13" lengthAdjust="spacing" textLength="16" x="486" y="231.5684">3x</text><!--MD5=[2d1512ed683932f2dfb2952732b1a9c5]
link Pietruszka to Barszcz--><path d="M159.71,236.11 C220.79,247.54 332.42,268.18 428,284.5 C450.18,288.29 458.06,282.07 478,292.5 C503.65,305.91 525.65,331.28 539.28,349.65 " fill="none" id="Pietruszka-to-Barszcz" style="stroke:#A80036;stroke-width:1.0;"/><polygon fill="#A80036" points="542.57,354.16,540.5074,344.5296,539.6274,350.1176,534.0394,349.2376,542.57,354.16" style="stroke:#A80036;stroke-width:1.0;"/><text fill="#000000" font-family="sans-serif" font-size="13" lengthAdjust="spacing" textLength="16" x="429" y="281.0684">3x</text><!--MD5=[48d82f5705285cf72a1499e48ca22104]
link SelerKorzeń to Barszcz--><path d="M113.57,361.48 C124.07,342.11 148.84,302.55 183,287.08 C190.29,283.78 193,287.01 201,287.08 C324.13,288.29 365.33,242.82 478,292.5 C504.89,304.36 526.84,330.73 540.12,349.96 " fill="none" id="SelerKorzeń-to-Barszcz" style="stroke:#A80036;stroke-width:1.0;"/><polygon fill="#A80036" points="542.98,354.2,541.2544,344.5035,540.1802,350.0574,534.6263,348.9832,542.98,354.2" style="stroke:#A80036;stroke-width:1.0;"/><text fill="#000000" font-family="sans-serif" font-size="13" lengthAdjust="spacing" textLength="16" x="184" y="281.0684">3x</text><!--MD5=[11b75f6ef17b53e6ebf6c5315e8b11e4]
link Marchewka to Ogórkowa--><path d="M130.07,125.1 C147.57,133.99 174.42,146.69 199,154.5 C333.66,197.26 382.99,155.69 511,215.5 C581.06,248.24 645.07,316.02 674.68,350.45 " fill="none" id="Marchewka-to-Ogórkowa" style="stroke:#A80036;stroke-width:1.0;"/><polygon fill="#A80036" points="678.12,354.48,675.3204,345.0374,674.8743,350.6767,669.2351,350.2306,678.12,354.48" style="stroke:#A80036;stroke-width:1.0;"/><text fill="#000000" font-family="sans-serif" font-size="13" lengthAdjust="spacing" textLength="16" x="549" y="231.5684">3x</text><!--MD5=[2565ea33d65a044c8f8cb473fb325411]
link Pietruszka to Ogórkowa--><path d="M159.65,231.88 C273.96,243.08 566.21,273.23 606,292.5 C633.99,306.05 659.32,331.73 675.12,350.13 " fill="none" id="Pietruszka-to-Ogórkowa" style="stroke:#A80036;stroke-width:1.0;"/><polygon fill="#A80036" points="678.54,354.18,675.7959,344.7211,675.3167,350.3577,669.6802,349.8784,678.54,354.18" style="stroke:#A80036;stroke-width:1.0;"/><text fill="#000000" font-family="sans-serif" font-size="13" lengthAdjust="spacing" textLength="16" x="573" y="281.0684">3x</text><!--MD5=[d2d9bab465498901dfd075505ddd6799]
link SelerKorzeń to Ogórkowa--><path d="M116.18,361.39 C131.31,341.89 165.84,302.13 206,287.08 C213.49,284.28 216,287.03 224,287.08 C308.9,287.69 527.21,260.87 606,292.5 C635.21,304.22 660.45,330.89 675.9,350.21 " fill="none" id="SelerKorzeń-to-Ogórkowa" style="stroke:#A80036;stroke-width:1.0;"/><polygon fill="#A80036" points="679.23,354.46,676.8164,344.9115,676.1415,350.5279,670.5251,349.853,679.23,354.46" style="stroke:#A80036;stroke-width:1.0;"/><text fill="#000000" font-family="sans-serif" font-size="13" lengthAdjust="spacing" textLength="16" x="207" y="281.0684">3x</text><!--MD5=[095a838d56b42117fd2f1df8ab00ee52]
@startuml Recipes1
actor actor
folder Warzywa.Obróbka {
  folder Włoszczyzna {
   card Marchewka
   card Pietruszka
   card SelerKorzeń
  }
}
frame Zupa1 {
file Rosół
}
frame Zupa2 {
file Pomidorowa
}
frame Zupa3 {
file Barszcz
}
frame Zupa4 {
file Ogórkowa
}

Marchewka     -[dotted]do- Pietruszka
Pietruszka    -[dotted]do- SelerKorzeń
Marchewka     -ri-> Rosół : 3x
Pietruszka    -ri-> Rosół : 3x
SelerKorzeń   -ri-> Rosół : 3x

Marchewka     -ri-> Pomidorowa : 3x
Pietruszka    -ri-> Pomidorowa : 3x
SelerKorzeń   -ri-> Pomidorowa : 3x

Marchewka     -ri-> Barszcz : 3x
Pietruszka    -ri-> Barszcz : 3x
SelerKorzeń   -ri-> Barszcz : 3x

Marchewka     -ri-> Ogórkowa : 3x
Pietruszka    -ri-> Ogórkowa : 3x
SelerKorzeń   -ri-> Ogórkowa : 3x
@enduml

PlantUML version 1.2021.00(Sun Jan 10 11:25:05 CET 2021)
(GPL source distribution)
Java Runtime: Java(TM) SE Runtime Environment
JVM: Java HotSpot(TM) 64-Bit Server VM
Default Encoding: UTF-8
Language: en
Country: GB
--></g></svg>